<svg width="775" height="299" viewBox="0 0 775 299" fill="none" xmlns="http://www.w3.org/2000/svg">
<path d="M153.184 184.361C153.359 183.482 153.477 182.779 153.535 182.252C153.594 181.666 153.389 181.051 152.92 180.406C153.154 179.469 153.33 178.736 153.447 178.209C153.623 177.682 153.652 176.949 153.535 176.012C154.062 174.488 154.854 173.199 155.908 172.145C157.021 171.09 158.223 170.211 159.512 169.508C160.801 168.746 162.148 168.131 163.555 167.662C164.961 167.135 166.279 166.695 167.51 166.344C167.51 166.109 167.393 165.992 167.158 165.992C166.924 165.992 166.865 165.846 166.982 165.553C170.146 164.967 173.311 164.117 176.475 163.004C179.697 161.891 182.979 160.895 186.318 160.016C189.658 159.137 193.086 158.609 196.602 158.434C200.117 158.199 203.809 158.639 207.676 159.752C207.91 160.455 208.232 161.129 208.643 161.773C209.053 162.418 209.463 163.062 209.873 163.707C210.342 164.293 210.752 164.879 211.104 165.465C211.455 166.051 211.66 166.666 211.719 167.311C212.422 167.955 212.979 168.658 213.389 169.42C213.857 170.123 213.945 171.09 213.652 172.32C213.008 172.789 212.334 173.258 211.631 173.727C210.928 174.195 210.195 174.635 209.434 175.045C206.797 174.4 204.16 174.166 201.523 174.342C198.887 174.518 196.514 174.723 194.404 174.957C193.76 174.254 192.998 173.932 192.119 173.99C191.24 173.99 190.303 174.137 189.307 174.43C188.369 174.664 187.432 174.928 186.494 175.221C185.557 175.455 184.678 175.514 183.857 175.396C183.213 175.982 182.363 176.393 181.309 176.627C180.254 176.803 179.141 176.949 177.969 177.066C177.91 177.359 177.969 177.564 178.145 177.682C178.32 177.799 178.35 178.033 178.232 178.385C178.643 178.912 179.199 179.293 179.902 179.527C180.605 179.703 181.309 179.879 182.012 180.055C182.773 180.23 183.447 180.494 184.033 180.846C184.619 181.139 185 181.637 185.176 182.34C186.23 182.398 187.139 182.691 187.9 183.219C188.662 183.688 189.307 184.273 189.834 184.977C190.361 185.68 190.742 186.441 190.977 187.262C191.211 188.023 191.299 188.727 191.24 189.371C191.475 189.957 191.709 190.191 191.943 190.074C192.236 189.957 192.559 190.104 192.91 190.514C193.145 191.393 193.672 192.33 194.492 193.326C195.371 194.264 196.045 195.289 196.514 196.402C196.631 198.16 196.719 199.742 196.777 201.148C196.895 202.555 196.66 203.932 196.074 205.279C195.078 207.857 193.643 210.172 191.768 212.223C189.893 214.273 187.754 216.09 185.352 217.672C183.008 219.195 180.518 220.543 177.881 221.715C175.244 222.828 172.637 223.766 170.059 224.527C169.824 224.469 169.531 224.469 169.18 224.527C168.887 224.586 168.828 224.41 169.004 224C168.477 224.469 167.861 224.762 167.158 224.879C166.514 224.996 165.781 225.025 164.961 224.967C164.199 224.967 163.408 224.938 162.588 224.879C161.826 224.82 161.064 224.85 160.303 224.967C159.834 224.498 159.395 224.029 158.984 223.561C158.633 223.092 158.34 222.535 158.105 221.891C157.812 221.832 157.666 221.656 157.666 221.363C157.725 221.012 157.607 220.836 157.314 220.836C157.314 220.602 157.344 220.426 157.402 220.309C157.461 220.191 157.52 220.074 157.578 219.957C157.812 219.781 157.9 219.664 157.842 219.605C157.842 219.488 157.754 219.4 157.578 219.342C157.461 219.225 157.314 219.107 157.139 218.99C157.021 218.873 156.992 218.727 157.051 218.551C157.344 218.023 157.432 217.408 157.314 216.705C157.256 215.943 157.197 215.182 157.139 214.42C157.08 213.658 157.139 212.955 157.314 212.311C157.49 211.607 157.988 211.021 158.809 210.553C161.211 210.787 163.467 210.67 165.576 210.201C167.744 209.732 169.766 209.088 171.641 208.268C173.574 207.447 175.391 206.568 177.09 205.631C178.848 204.635 180.547 203.727 182.188 202.906C182.363 202.32 182.627 201.822 182.979 201.412C183.389 201.002 183.799 200.621 184.209 200.27C184.619 199.859 185 199.449 185.352 199.039C185.703 198.57 185.967 198.014 186.143 197.369C186.201 197.135 186.201 196.959 186.143 196.842C186.084 196.725 185.996 196.637 185.879 196.578C185.762 196.461 185.645 196.344 185.527 196.227C185.41 196.109 185.352 195.934 185.352 195.699C185.176 195.641 185 195.582 184.824 195.523C184.707 195.465 184.59 195.436 184.473 195.436C182.949 194.674 181.338 194.029 179.639 193.502C177.939 192.975 176.504 192.389 175.332 191.744C174.629 192.213 173.926 192.33 173.223 192.096C172.52 191.861 171.67 191.627 170.674 191.393C168.213 191.275 165.869 191.041 163.643 190.689C161.475 190.338 159.365 189.723 157.314 188.844C157.197 188.492 157.051 188.199 156.875 187.965C156.699 187.672 156.289 187.584 155.645 187.701C155.234 187.115 154.795 186.588 154.326 186.119C153.916 185.592 153.535 185.006 153.184 184.361ZM210.84 190.953C210.547 189.312 210.459 187.613 210.576 185.855C210.693 184.098 210.752 182.398 210.752 180.758C210.752 179.176 210.635 177.506 210.4 175.748C210.225 173.932 210.049 172.203 209.873 170.562C209.756 168.922 209.697 167.428 209.697 166.08C209.756 164.674 209.961 163.59 210.312 162.828C210.781 161.949 211.367 161.275 212.07 160.807C212.773 160.279 213.447 159.693 214.092 159.049C214.854 159.166 215.527 159.4 216.113 159.752C216.758 160.045 217.285 160.455 217.695 160.982C218.164 161.451 218.486 161.949 218.662 162.477C218.896 163.004 218.955 163.531 218.838 164.059C220.303 164.938 221.475 166.139 222.354 167.662C223.291 169.127 223.994 170.768 224.463 172.584C224.99 174.342 225.342 176.217 225.518 178.209C225.752 180.201 225.928 182.164 226.045 184.098C226.221 186.031 226.367 187.877 226.484 189.635C226.66 191.334 226.953 192.828 227.363 194.117C229.941 190.367 232.109 187.057 233.867 184.186C235.684 181.256 237.5 178.473 239.316 175.836C241.133 173.141 243.154 170.416 245.381 167.662C247.666 164.908 250.566 161.803 254.082 158.346C254.844 158.463 255.43 158.609 255.84 158.785C256.25 158.961 256.66 159.137 257.07 159.312C257.48 159.488 257.92 159.635 258.389 159.752C258.857 159.811 259.502 159.781 260.322 159.664C260.615 160.367 260.82 160.895 260.938 161.246C261.113 161.539 261.26 161.832 261.377 162.125C261.494 162.418 261.641 162.799 261.816 163.268C261.992 163.736 262.256 164.439 262.607 165.377C262.783 165.611 262.842 165.934 262.783 166.344C262.783 166.695 262.754 167.018 262.695 167.311C262.637 167.604 262.607 167.838 262.607 168.014C262.666 168.189 262.871 168.189 263.223 168.014C262.988 169.01 262.607 169.918 262.08 170.738C261.553 171.5 261.318 172.438 261.377 173.551C259.795 175.66 258.037 177.828 256.104 180.055C254.17 182.281 252.236 184.625 250.303 187.086C248.369 189.488 246.494 192.008 244.678 194.645C242.92 197.223 241.426 199.977 240.195 202.906C239.844 202.906 239.58 202.994 239.404 203.17C239.229 203.346 239.053 203.551 238.877 203.785C238.76 204.02 238.613 204.254 238.438 204.488C238.32 204.723 238.086 204.84 237.734 204.84C237.617 206.715 236.914 208.502 235.625 210.201C234.395 211.842 233.135 213.248 231.846 214.42C231.963 214.889 232.021 215.27 232.021 215.562C232.021 215.855 231.992 216.148 231.934 216.441C231.875 216.734 231.816 217.057 231.758 217.408C231.758 217.701 231.787 218.082 231.846 218.551C231.318 219.957 230.615 221.129 229.736 222.066C228.916 223.004 228.008 223.707 227.012 224.176C226.016 224.645 224.99 224.82 223.936 224.703C222.881 224.645 221.885 224.293 220.947 223.648C220.537 223.414 220.186 223.092 219.893 222.682C219.6 222.271 219.277 221.891 218.926 221.539C218.633 221.129 218.311 220.777 217.959 220.484C217.666 220.133 217.285 219.898 216.816 219.781C216.934 219.195 216.934 218.58 216.816 217.936C216.758 217.291 216.641 216.705 216.465 216.178C216.289 215.65 216.084 215.211 215.85 214.859C215.615 214.508 215.381 214.332 215.146 214.332C214.912 212.867 214.59 211.285 214.18 209.586C213.828 207.828 213.447 206.1 213.037 204.4C212.686 202.701 212.393 201.031 212.158 199.391C211.924 197.75 211.836 196.227 211.895 194.82C211.953 194.117 211.807 193.502 211.455 192.975C211.162 192.389 210.957 191.715 210.84 190.953ZM291.084 221.012C290.908 221.07 290.791 221.012 290.732 220.836C290.674 220.66 290.645 220.484 290.645 220.309C290.703 220.133 290.791 219.986 290.908 219.869C291.084 219.752 291.289 219.752 291.523 219.869C290.762 218.932 290.264 218.082 290.029 217.32C289.854 216.559 289.473 215.621 288.887 214.508C289.062 214.332 289.18 214.098 289.238 213.805C289.297 213.453 289.385 213.131 289.502 212.838C289.561 212.545 289.648 212.34 289.766 212.223C289.941 212.047 290.146 212.076 290.381 212.311C290.264 211.666 290.264 211.139 290.381 210.729C290.498 210.318 290.615 209.938 290.732 209.586C290.908 209.234 291.025 208.883 291.084 208.531C291.143 208.18 291.055 207.77 290.82 207.301C291.934 205.777 292.666 204.137 293.018 202.379C293.369 200.562 293.574 198.922 293.633 197.457C294.16 196.93 294.6 196.227 294.951 195.348C295.361 194.469 295.654 193.561 295.83 192.623C296.006 191.686 296.094 190.777 296.094 189.898C296.094 188.961 295.977 188.229 295.742 187.701C295.801 187.467 295.918 187.35 296.094 187.35C296.328 187.291 296.592 187.291 296.885 187.35C297.295 185.006 297.559 182.398 297.676 179.527C297.852 176.656 298.145 173.902 298.555 171.266C299.023 168.57 299.756 166.227 300.752 164.234C301.748 162.184 303.33 160.865 305.498 160.279C305.908 161.744 306.436 163.033 307.08 164.146C307.783 165.26 308.516 166.344 309.277 167.398C310.098 168.453 310.918 169.508 311.738 170.562C312.559 171.617 313.32 172.789 314.023 174.078C313.965 175.426 313.818 176.979 313.584 178.736C313.408 180.494 313.145 182.281 312.793 184.098C312.5 185.914 312.178 187.672 311.826 189.371C311.533 191.07 311.24 192.506 310.947 193.678C311.006 193.971 311.211 194.176 311.562 194.293C311.914 194.352 311.973 194.674 311.738 195.26C313.438 194.85 315.195 194.469 317.012 194.117C318.887 193.707 320.703 193.326 322.461 192.975C324.277 192.564 326.035 192.096 327.734 191.568C329.492 191.041 331.133 190.396 332.656 189.635C333.008 186.822 333.447 184.039 333.975 181.285C334.502 178.531 334.561 175.748 334.15 172.936C334.502 172.643 334.795 172.291 335.029 171.881C335.264 171.471 335.615 171.207 336.084 171.09C335.732 169.742 335.586 168.336 335.645 166.871C335.703 165.348 335.938 163.941 336.348 162.652C336.816 161.363 337.49 160.25 338.369 159.312C339.248 158.316 340.332 157.672 341.621 157.379C342.383 158.492 343.057 159.693 343.643 160.982C344.229 162.271 344.814 163.59 345.4 164.938C345.986 166.227 346.602 167.457 347.246 168.629C347.949 169.801 348.828 170.797 349.883 171.617C350.059 173.668 350.205 175.777 350.322 177.945C350.439 180.055 350.527 182.252 350.586 184.537C350.059 187.174 349.443 189.752 348.74 192.271C348.096 194.732 347.627 197.369 347.334 200.182C346.865 200.709 346.484 201.354 346.191 202.115C345.898 202.818 345.605 203.551 345.312 204.312C345.078 205.016 344.785 205.719 344.434 206.422C344.082 207.125 343.643 207.711 343.115 208.18C343.35 209 343.379 209.791 343.203 210.553C343.086 211.256 343.291 212.105 343.818 213.102C343.936 214.918 343.701 216.441 343.115 217.672C342.588 218.844 341.826 219.869 340.83 220.748C339.893 221.568 338.779 222.242 337.49 222.77C336.26 223.238 335.029 223.678 333.799 224.088C333.213 223.736 332.656 223.385 332.129 223.033C331.66 222.623 331.074 222.33 330.371 222.154L330.811 221.363C329.639 220.191 328.613 218.961 327.734 217.672C326.914 216.324 326.533 214.801 326.592 213.102C326.592 213.043 326.65 212.662 326.768 211.959C326.885 211.197 327.002 210.406 327.119 209.586C327.295 208.766 327.441 208.004 327.559 207.301C327.734 206.539 327.822 206.129 327.822 206.07C326.182 206.246 324.482 206.627 322.725 207.213C320.967 207.799 319.238 208.473 317.539 209.234C315.898 209.938 314.346 210.699 312.881 211.52C311.475 212.281 310.332 212.926 309.453 213.453C309.453 213.629 309.307 214.127 309.014 214.947C308.721 215.768 308.369 216.646 307.959 217.584C307.549 218.463 307.08 219.254 306.553 219.957C306.084 220.66 305.586 220.982 305.059 220.924C305.176 221.217 305.293 221.451 305.41 221.627C305.527 221.744 305.527 222.008 305.41 222.418C304.414 222.711 303.506 223.092 302.686 223.561C301.924 224.029 301.133 224.41 300.312 224.703C299.492 225.055 298.584 225.201 297.588 225.143C296.65 225.143 295.508 224.791 294.16 224.088C294.16 223.678 293.984 223.326 293.633 223.033C293.281 222.682 292.9 222.389 292.49 222.154C292.139 221.92 291.816 221.715 291.523 221.539C291.23 221.363 291.084 221.188 291.084 221.012ZM373.525 224.352C370.947 224.703 368.604 224.586 366.494 224C364.385 223.414 362.48 222.506 360.781 221.275C359.141 220.045 357.705 218.58 356.475 216.881C355.303 215.182 354.336 213.365 353.574 211.432C353.047 207.447 353.193 203.844 354.014 200.621C354.834 197.34 356.035 194.322 357.617 191.568C359.199 188.814 360.986 186.236 362.979 183.834C365.029 181.432 366.992 179.117 368.867 176.891C369.277 177.066 369.6 177.066 369.834 176.891C370.127 176.715 370.361 176.48 370.537 176.188C370.771 175.895 371.006 175.602 371.24 175.309C371.533 175.016 371.855 174.811 372.207 174.693C372.441 174.166 372.734 173.727 373.086 173.375C373.496 173.023 373.906 172.701 374.316 172.408C374.785 172.057 375.195 171.705 375.547 171.354C375.957 171.002 376.309 170.562 376.602 170.035C377.188 169.918 377.686 169.713 378.096 169.42C378.564 169.127 378.975 168.805 379.326 168.453C379.736 168.102 380.146 167.779 380.557 167.486C380.967 167.193 381.465 166.959 382.051 166.783V165.641C383.34 165.055 384.277 164.41 384.863 163.707C385.449 163.004 386.152 162.096 386.973 160.982C387.617 160.924 388.115 160.895 388.467 160.895C388.877 160.895 389.492 160.836 390.312 160.719C390.84 159.723 391.338 158.99 391.807 158.521C392.275 158.053 392.949 157.525 393.828 156.939C394.707 157.408 395.645 157.701 396.641 157.818C397.637 157.877 398.545 158.316 399.365 159.137C399.424 159.84 399.629 160.396 399.98 160.807C400.332 161.158 400.713 161.51 401.123 161.861C401.533 162.154 401.943 162.477 402.354 162.828C402.764 163.18 403.027 163.678 403.145 164.322C403.438 164.322 403.613 164.264 403.672 164.146C403.789 164.029 403.994 164 404.287 164.059C404.404 164.527 404.521 164.908 404.639 165.201C404.756 165.494 404.873 165.758 404.99 165.992C405.166 166.227 405.312 166.49 405.43 166.783C405.605 167.076 405.752 167.428 405.869 167.838C405.576 168.541 405.312 169.303 405.078 170.123C404.844 170.885 404.375 171.412 403.672 171.705C403.672 172.174 403.848 172.438 404.199 172.496C404.551 172.496 404.756 172.701 404.814 173.111C404.873 173.639 404.785 174.078 404.551 174.43C406.191 177.184 407.686 180.084 409.033 183.131C410.381 186.119 411.904 188.99 413.604 191.744C413.486 192.564 413.516 193.385 413.691 194.205C413.926 194.967 414.189 195.729 414.482 196.49C414.834 197.252 415.156 198.014 415.449 198.775C415.742 199.537 415.947 200.299 416.064 201.061C416.182 202.057 416.182 203.141 416.064 204.312C415.947 205.426 415.713 206.51 415.361 207.564C415.01 208.619 414.541 209.615 413.955 210.553C413.369 211.432 412.695 212.105 411.934 212.574C410.996 213.746 409.824 214.713 408.418 215.475C407.012 216.178 405.723 217.027 404.551 218.023C403.73 218.492 402.852 218.844 401.914 219.078C400.977 219.254 400.01 219.459 399.014 219.693C398.252 220.162 397.344 220.631 396.289 221.1C395.234 221.51 394.15 221.891 393.037 222.242C391.924 222.594 390.811 222.887 389.697 223.121C388.584 223.297 387.588 223.326 386.709 223.209C384.6 223.971 382.549 224.498 380.557 224.791C378.564 225.084 376.221 224.938 373.525 224.352ZM374.668 192.359C374.082 193.707 373.379 194.938 372.559 196.051C371.797 197.105 371.035 198.189 370.273 199.303C369.512 200.416 368.838 201.617 368.252 202.906C367.725 204.137 367.432 205.602 367.373 207.301C368.545 208.297 369.922 208.912 371.504 209.146C373.145 209.322 374.814 209.352 376.514 209.234C378.213 209.059 379.912 208.824 381.611 208.531C383.311 208.238 384.834 208.092 386.182 208.092C386.182 207.564 386.416 207.301 386.885 207.301C389.346 207.066 391.631 206.393 393.74 205.279C395.85 204.107 398.047 202.936 400.332 201.764C400.625 201.061 401.006 200.445 401.475 199.918C401.943 199.391 402.207 198.629 402.266 197.633C401.973 197.105 401.768 196.666 401.65 196.314C401.592 195.963 401.562 195.436 401.562 194.732C400.039 192.623 398.721 190.338 397.607 187.877C396.494 185.357 395.205 182.984 393.74 180.758C393.623 181.051 393.389 181.344 393.037 181.637C392.686 181.93 392.305 181.871 391.895 181.461C391.719 182.047 391.455 182.457 391.104 182.691C390.752 182.867 390.342 182.955 389.873 182.955C389.463 182.955 389.023 182.867 388.555 182.691C388.145 182.516 387.764 182.281 387.412 181.988C385.361 183.629 383.311 185.211 381.26 186.734C379.268 188.258 377.451 190.045 375.811 192.096C375.518 192.271 375.342 192.33 375.283 192.271C375.225 192.213 375.02 192.242 374.668 192.359ZM415.625 144.986L415.713 145.953C415.303 146.656 414.951 147.242 414.658 147.711C414.424 148.18 414.248 148.678 414.131 149.205C413.486 149.85 412.988 150.26 412.637 150.436C412.285 150.553 411.963 150.67 411.67 150.787C411.025 151.021 410.586 151.256 410.352 151.49L409.473 152.809L408.594 152.018L407.275 153.248C406.631 152.721 406.162 152.34 405.869 152.105C405.576 151.812 405.283 151.578 404.99 151.402C404.756 151.227 404.404 151.051 403.936 150.875C403.525 150.641 402.852 150.318 401.914 149.908L400.684 149.469L401.035 148.326C401.152 148.033 401.182 147.506 401.123 146.744C401.123 145.982 401.152 145.338 401.211 144.811C401.27 143.873 401.27 142.994 401.211 142.174C401.152 141.354 401.299 140.621 401.65 139.977C402.881 139.332 403.848 138.893 404.551 138.658C405.137 138.717 405.693 138.775 406.221 138.834C406.748 138.893 407.275 138.951 407.803 139.01C408.213 139.068 408.477 139.127 408.594 139.186C408.711 139.186 408.77 139.186 408.77 139.186C408.828 139.186 408.916 139.186 409.033 139.186C409.15 139.127 409.385 139.039 409.736 138.922L410.791 139.098C411.201 139.273 411.523 139.537 411.758 139.889C412.051 140.182 412.344 140.475 412.637 140.768C412.871 141.236 413.105 141.529 413.34 141.646L414.395 141.734L414.746 142.789C415.039 143.375 415.215 143.814 415.273 144.107C415.391 144.342 415.508 144.635 415.625 144.986ZM389.346 141.559C389.99 142.262 390.635 142.906 391.279 143.492C391.924 144.078 392.305 144.723 392.422 145.426C392.188 146.363 391.982 147.008 391.807 147.359C391.689 147.711 391.543 148.092 391.367 148.502C390.605 149.146 389.727 149.82 388.73 150.523C388.379 150.816 388.145 150.992 388.027 151.051C387.91 151.109 387.822 151.168 387.764 151.227C387.764 151.227 387.734 151.285 387.676 151.402C387.676 151.461 387.588 151.666 387.412 152.018L386.533 152.633C386.064 152.809 385.625 152.896 385.215 152.896C384.805 152.838 384.395 152.779 383.984 152.721C383.809 152.721 383.574 152.721 383.281 152.721C383.047 152.662 382.871 152.633 382.754 152.633L382.051 153.336L380.996 152.896C380.352 152.604 379.883 152.428 379.59 152.369C379.355 152.252 379.092 152.076 378.799 151.842L378.008 151.314C377.773 150.436 377.568 149.762 377.393 149.293C377.275 148.766 377.1 148.268 376.865 147.799C376.865 146.803 376.924 146.129 377.041 145.777C377.158 145.426 377.275 145.104 377.393 144.811C377.744 144.166 377.891 143.697 377.832 143.404L377.48 141.822L378.799 141.734V139.889C379.619 139.83 380.234 139.801 380.645 139.801C381.055 139.801 381.436 139.771 381.787 139.713C382.139 139.596 382.52 139.449 382.93 139.273C383.398 139.098 384.131 138.805 385.127 138.395L386.357 137.867L386.885 139.01C387.002 139.244 387.324 139.625 387.852 140.152C388.438 140.68 388.936 141.148 389.346 141.559ZM435.225 215.738C434.639 216.207 434.287 216.822 434.17 217.584C434.053 218.287 433.906 218.99 433.73 219.693C433.555 220.396 433.232 221.012 432.764 221.539C432.354 222.008 431.592 222.213 430.479 222.154C430.244 222.447 430.186 222.623 430.303 222.682C430.479 222.74 430.625 223.004 430.742 223.473C429.922 223.355 429.336 223.414 428.984 223.648C428.633 223.883 428.193 224.059 427.666 224.176C426.318 223.766 425.176 223.033 424.238 221.979C423.359 220.865 422.568 219.664 421.865 218.375C421.221 217.086 420.635 215.768 420.107 214.42C419.639 213.072 419.141 211.9 418.613 210.904C418.613 210.67 418.73 210.582 418.965 210.641C419.141 210.641 419.316 210.641 419.492 210.641C419.199 210.055 418.994 209.41 418.877 208.707C418.701 207.945 418.408 207.33 417.998 206.861C419.697 203.229 421.514 199.449 423.447 195.523C425.381 191.539 427.314 187.525 429.248 183.482C431.24 179.381 433.203 175.279 435.137 171.178C437.129 167.018 439.033 162.945 440.85 158.961C442.49 159.547 444.072 160.25 445.596 161.07C447.178 161.832 448.613 162.74 449.902 163.795C451.191 164.85 452.275 166.08 453.154 167.486C454.092 168.834 454.707 170.387 455 172.145C454.883 172.496 454.736 172.613 454.561 172.496C454.385 172.379 454.238 172.438 454.121 172.672C454.414 173.023 454.561 173.287 454.561 173.463C454.619 173.58 454.619 173.727 454.561 173.902C454.502 174.02 454.473 174.195 454.473 174.43C454.473 174.664 454.619 174.986 454.912 175.396C454.619 175.338 454.414 175.396 454.297 175.572C454.18 175.689 453.975 175.689 453.682 175.572C453.975 176.393 454.062 177.037 453.945 177.506C453.828 177.975 453.652 178.414 453.418 178.824C453.184 179.176 452.979 179.586 452.803 180.055C452.686 180.465 452.744 181.051 452.979 181.812C452.744 181.812 452.568 181.871 452.451 181.988C452.393 182.047 452.334 182.135 452.275 182.252C452.217 182.369 452.129 182.486 452.012 182.604C451.953 182.662 451.807 182.662 451.572 182.604C451.748 184.127 451.807 185.68 451.748 187.262C451.689 188.785 451.631 190.367 451.572 192.008C451.514 193.59 451.514 195.23 451.572 196.93C451.631 198.629 451.865 200.387 452.275 202.203C454.795 200.738 456.816 198.834 458.34 196.49C459.922 194.146 461.152 191.539 462.031 188.668C462.969 185.797 463.672 182.721 464.141 179.439C464.668 176.158 465.195 172.818 465.723 169.42C466.367 168.775 466.865 167.984 467.217 167.047C467.627 166.109 467.949 165.143 468.184 164.146C468.477 163.15 468.74 162.154 468.975 161.158C469.268 160.104 469.648 159.166 470.117 158.346C471.172 158.463 472.051 158.785 472.754 159.312C473.516 159.781 474.219 160.338 474.863 160.982C475.508 161.568 476.182 162.125 476.885 162.652C477.588 163.18 478.467 163.531 479.521 163.707C480.342 164.879 481.104 166.021 481.807 167.135C482.51 168.189 482.979 169.391 483.213 170.738C482.861 171.324 482.598 171.969 482.422 172.672C482.246 173.375 482.041 174.078 481.807 174.781C481.631 175.484 481.367 176.129 481.016 176.715C480.664 177.301 480.166 177.799 479.521 178.209C479.346 179.967 479.082 181.607 478.73 183.131C478.379 184.654 478.057 186.148 477.764 187.613C477.471 189.078 477.207 190.602 476.973 192.184C476.738 193.766 476.65 195.494 476.709 197.369C476.182 199.068 475.596 200.826 474.951 202.643C474.307 204.4 473.838 206.041 473.545 207.564C472.432 208.443 471.553 209.527 470.908 210.816C470.264 212.105 469.59 213.395 468.887 214.684C468.594 214.918 468.418 214.977 468.359 214.859C468.301 214.684 468.037 214.566 467.568 214.508C467.627 215.035 467.51 215.387 467.217 215.562C466.982 215.68 467.012 216.09 467.305 216.793C466.309 217.262 465.43 217.877 464.668 218.639C463.906 219.4 463.057 220.104 462.119 220.748C461.24 221.393 460.186 221.832 458.955 222.066C457.783 222.242 456.23 221.979 454.297 221.275C451.426 219.166 448.848 216.734 446.562 213.98C444.277 211.227 442.461 207.975 441.113 204.225C440.527 204.4 440.088 204.781 439.795 205.367C439.502 205.953 439.238 206.568 439.004 207.213C438.77 207.857 438.535 208.443 438.301 208.971C438.066 209.498 437.715 209.762 437.246 209.762C437.129 210.289 436.895 210.787 436.543 211.256C436.25 211.666 435.957 212.105 435.664 212.574C435.371 212.984 435.137 213.453 434.961 213.98C434.844 214.508 434.932 215.094 435.225 215.738ZM480.928 203.17C480.928 202.525 481.016 201.939 481.191 201.412C481.367 200.885 481.396 200.211 481.279 199.391C483.096 195.523 485.146 191.949 487.432 188.668C489.775 185.328 492.559 182.398 495.781 179.879C496.309 179.469 496.719 179.059 497.012 178.648C497.363 178.18 497.686 177.74 497.979 177.33C498.33 176.92 498.711 176.568 499.121 176.275C499.531 175.924 500.059 175.689 500.703 175.572C502.168 173.873 503.926 172.32 505.977 170.914C508.027 169.508 510.166 168.16 512.393 166.871C514.619 165.582 516.846 164.264 519.072 162.916C521.357 161.568 523.408 160.104 525.225 158.521C525.869 158.932 526.367 159.078 526.719 158.961C527.129 158.785 527.539 158.756 527.949 158.873C528.477 159.986 529.15 160.777 529.971 161.246C530.85 161.656 531.729 162.096 532.607 162.564C533.545 162.975 534.395 163.502 535.156 164.146C535.977 164.732 536.592 165.553 537.002 166.607C536.592 166.607 536.387 166.754 536.387 167.047C536.445 167.34 536.533 167.662 536.65 168.014C536.768 168.365 536.826 168.688 536.826 168.98C536.826 169.273 536.562 169.42 536.035 169.42C536.035 169.83 536.24 170.035 536.65 170.035C537.061 170.035 537.266 170.24 537.266 170.65C537.266 171.002 537.178 171.295 537.002 171.529C536.885 171.705 536.885 172.027 537.002 172.496C535.596 173.434 534.014 174.342 532.256 175.221C530.557 176.041 528.74 176.92 526.807 177.857C524.932 178.795 522.998 179.82 521.006 180.934C519.072 181.988 517.139 183.219 515.205 184.625C513.271 186.031 511.309 187.584 509.316 189.283C507.383 190.982 505.508 192.799 503.691 194.732C501.875 196.607 500.176 198.57 498.594 200.621C497.012 202.613 495.664 204.576 494.551 206.51C494.668 206.803 494.814 207.066 494.99 207.301C495.225 207.535 495.4 207.799 495.518 208.092C497.744 208.209 499.824 208.209 501.758 208.092C503.691 207.916 505.625 208.033 507.559 208.443C507.793 208.268 507.939 208.033 507.998 207.74C508.057 207.447 508.232 207.242 508.525 207.125C512.51 206.715 516.23 206.07 519.688 205.191C523.145 204.254 526.66 203.316 530.234 202.379C529.18 201.969 528.242 201.646 527.422 201.412C527.07 201.061 527.07 200.768 527.422 200.533C527.832 200.24 528.154 199.947 528.389 199.654C527.451 199.127 526.66 198.424 526.016 197.545C525.43 196.666 525.078 195.523 524.961 194.117C525.371 193.766 525.576 193.355 525.576 192.887C525.576 192.418 525.371 192.037 524.961 191.744C524.668 191.627 524.492 191.627 524.434 191.744C524.375 191.861 524.316 191.979 524.258 192.096C524.258 192.213 524.199 192.33 524.082 192.447C524.023 192.564 523.877 192.564 523.643 192.447C523.701 191.803 523.848 191.275 524.082 190.865C524.316 190.455 524.492 189.957 524.609 189.371L531.904 184.537C532.666 185.123 533.604 185.738 534.717 186.383C535.83 187.027 537.002 187.672 538.232 188.316C539.463 188.961 540.723 189.635 542.012 190.338C543.301 190.982 544.502 191.627 545.615 192.271C546.67 192.74 547.578 193.326 548.34 194.029C549.102 194.674 549.834 195.377 550.537 196.139C551.24 196.842 551.943 197.545 552.646 198.248C553.35 198.951 554.199 199.537 555.195 200.006C555.078 200.943 555.137 201.705 555.371 202.291C555.605 202.877 555.664 203.58 555.547 204.4C554.434 206.393 553.086 208.092 551.504 209.498C549.922 210.846 548.135 212.018 546.143 213.014C544.209 214.01 542.129 214.859 539.902 215.562C537.676 216.207 535.391 216.852 533.047 217.496C530.703 218.082 528.33 218.727 525.928 219.43C523.584 220.074 521.27 220.836 518.984 221.715C517.988 221.715 517.139 221.744 516.436 221.803C515.732 221.861 515.059 221.949 514.414 222.066C513.77 222.184 513.125 222.301 512.48 222.418C511.836 222.535 511.133 222.623 510.371 222.682C510.078 222.623 509.873 222.682 509.756 222.857C509.697 223.033 509.58 223.18 509.404 223.297C508.232 223.473 507.178 223.561 506.24 223.561C505.303 223.561 504.512 223.561 503.867 223.561C503.047 223.561 502.197 223.678 501.318 223.912C500.439 224.146 499.619 224.234 498.857 224.176C493.584 223.941 489.453 222.066 486.465 218.551C483.477 215.035 481.836 210.201 481.543 204.049C481.602 203.756 481.543 203.58 481.367 203.521C481.191 203.404 481.045 203.287 480.928 203.17ZM551.943 203.17C551.943 202.525 552.031 201.939 552.207 201.412C552.383 200.885 552.412 200.211 552.295 199.391C554.111 195.523 556.162 191.949 558.447 188.668C560.791 185.328 563.574 182.398 566.797 179.879C567.324 179.469 567.734 179.059 568.027 178.648C568.379 178.18 568.701 177.74 568.994 177.33C569.346 176.92 569.727 176.568 570.137 176.275C570.547 175.924 571.074 175.689 571.719 175.572C573.184 173.873 574.941 172.32 576.992 170.914C579.043 169.508 581.182 168.16 583.408 166.871C585.635 165.582 587.861 164.264 590.088 162.916C592.373 161.568 594.424 160.104 596.24 158.521C596.885 158.932 597.383 159.078 597.734 158.961C598.145 158.785 598.555 158.756 598.965 158.873C599.492 159.986 600.166 160.777 600.986 161.246C601.865 161.656 602.744 162.096 603.623 162.564C604.561 162.975 605.41 163.502 606.172 164.146C606.992 164.732 607.607 165.553 608.018 166.607C607.607 166.607 607.402 166.754 607.402 167.047C607.461 167.34 607.549 167.662 607.666 168.014C607.783 168.365 607.842 168.688 607.842 168.98C607.842 169.273 607.578 169.42 607.051 169.42C607.051 169.83 607.256 170.035 607.666 170.035C608.076 170.035 608.281 170.24 608.281 170.65C608.281 171.002 608.193 171.295 608.018 171.529C607.9 171.705 607.9 172.027 608.018 172.496C606.611 173.434 605.029 174.342 603.271 175.221C601.572 176.041 599.756 176.92 597.822 177.857C595.947 178.795 594.014 179.82 592.021 180.934C590.088 181.988 588.154 183.219 586.221 184.625C584.287 186.031 582.324 187.584 580.332 189.283C578.398 190.982 576.523 192.799 574.707 194.732C572.891 196.607 571.191 198.57 569.609 200.621C568.027 202.613 566.68 204.576 565.566 206.51C565.684 206.803 565.83 207.066 566.006 207.301C566.24 207.535 566.416 207.799 566.533 208.092C568.76 208.209 570.84 208.209 572.773 208.092C574.707 207.916 576.641 208.033 578.574 208.443C578.809 208.268 578.955 208.033 579.014 207.74C579.072 207.447 579.248 207.242 579.541 207.125C583.525 206.715 587.246 206.07 590.703 205.191C594.16 204.254 597.676 203.316 601.25 202.379C600.195 201.969 599.258 201.646 598.438 201.412C598.086 201.061 598.086 200.768 598.438 200.533C598.848 200.24 599.17 199.947 599.404 199.654C598.467 199.127 597.676 198.424 597.031 197.545C596.445 196.666 596.094 195.523 595.977 194.117C596.387 193.766 596.592 193.355 596.592 192.887C596.592 192.418 596.387 192.037 595.977 191.744C595.684 191.627 595.508 191.627 595.449 191.744C595.391 191.861 595.332 191.979 595.273 192.096C595.273 192.213 595.215 192.33 595.098 192.447C595.039 192.564 594.893 192.564 594.658 192.447C594.717 191.803 594.863 191.275 595.098 190.865C595.332 190.455 595.508 189.957 595.625 189.371L602.92 184.537C603.682 185.123 604.619 185.738 605.732 186.383C606.846 187.027 608.018 187.672 609.248 188.316C610.479 188.961 611.738 189.635 613.027 190.338C614.316 190.982 615.518 191.627 616.631 192.271C617.686 192.74 618.594 193.326 619.355 194.029C620.117 194.674 620.85 195.377 621.553 196.139C622.256 196.842 622.959 197.545 623.662 198.248C624.365 198.951 625.215 199.537 626.211 200.006C626.094 200.943 626.152 201.705 626.387 202.291C626.621 202.877 626.68 203.58 626.562 204.4C625.449 206.393 624.102 208.092 622.52 209.498C620.938 210.846 619.15 212.018 617.158 213.014C615.225 214.01 613.145 214.859 610.918 215.562C608.691 216.207 606.406 216.852 604.062 217.496C601.719 218.082 599.346 218.727 596.943 219.43C594.6 220.074 592.285 220.836 590 221.715C589.004 221.715 588.154 221.744 587.451 221.803C586.748 221.861 586.074 221.949 585.43 222.066C584.785 222.184 584.141 222.301 583.496 222.418C582.852 222.535 582.148 222.623 581.387 222.682C581.094 222.623 580.889 222.682 580.771 222.857C580.713 223.033 580.596 223.18 580.42 223.297C579.248 223.473 578.193 223.561 577.256 223.561C576.318 223.561 575.527 223.561 574.883 223.561C574.062 223.561 573.213 223.678 572.334 223.912C571.455 224.146 570.635 224.234 569.873 224.176C564.6 223.941 560.469 222.066 557.48 218.551C554.492 215.035 552.852 210.201 552.559 204.049C552.617 203.756 552.559 203.58 552.383 203.521C552.207 203.404 552.061 203.287 551.943 203.17ZM295.532 275.027C295.76 274.344 296.118 273.758 296.606 273.27C297.127 272.781 297.681 272.374 298.267 272.049C298.885 271.691 299.52 271.398 300.171 271.17C300.822 270.942 301.44 270.747 302.026 270.584C303.328 270.031 304.712 269.51 306.177 269.021C307.674 268.501 309.188 268.045 310.718 267.654C312.28 267.264 313.875 267.02 315.503 266.922C317.131 266.792 318.84 266.987 320.63 267.508C320.728 267.833 320.874 268.143 321.069 268.436C321.265 268.729 321.46 269.021 321.655 269.314C321.883 269.607 322.078 269.9 322.241 270.193C322.404 270.454 322.502 270.73 322.534 271.023C322.86 271.316 323.12 271.642 323.315 272C323.511 272.326 323.543 272.765 323.413 273.318C323.088 273.579 322.762 273.823 322.437 274.051C322.144 274.246 321.818 274.425 321.46 274.588C320.256 274.295 319.035 274.197 317.798 274.295C316.561 274.393 315.454 274.474 314.478 274.539C314.185 274.246 313.826 274.1 313.403 274.1C313.013 274.1 312.59 274.165 312.134 274.295C311.711 274.425 311.271 274.555 310.815 274.686C310.392 274.816 309.985 274.848 309.595 274.783C309.269 275.044 308.862 275.223 308.374 275.32C307.918 275.385 307.414 275.451 306.86 275.516C306.828 275.678 306.86 275.792 306.958 275.857C307.056 275.89 307.072 275.988 307.007 276.15C307.202 276.378 307.446 276.541 307.739 276.639C308.065 276.736 308.39 276.834 308.716 276.932C309.074 277.029 309.383 277.16 309.644 277.322C309.904 277.452 310.083 277.68 310.181 278.006C310.669 278.006 311.092 278.12 311.45 278.348C311.808 278.576 312.101 278.852 312.329 279.178C312.557 279.503 312.72 279.861 312.817 280.252C312.948 280.61 313.013 280.936 313.013 281.229C313.11 281.489 313.224 281.603 313.354 281.57C313.485 281.538 313.631 281.603 313.794 281.766C313.892 282.189 314.136 282.628 314.526 283.084C314.917 283.507 315.226 283.979 315.454 284.5C315.519 285.314 315.568 286.046 315.601 286.697C315.633 287.316 315.519 287.951 315.259 288.602C314.771 289.806 314.087 290.88 313.208 291.824C312.362 292.768 311.385 293.615 310.278 294.363C309.204 295.079 308.049 295.698 306.812 296.219C305.575 296.74 304.37 297.179 303.198 297.537C303.068 297.505 302.938 297.505 302.808 297.537C302.677 297.57 302.645 297.488 302.71 297.293C302.45 297.521 302.157 297.667 301.831 297.732C301.538 297.798 301.213 297.814 300.854 297.781C300.496 297.781 300.122 297.765 299.731 297.732C299.373 297.7 299.032 297.716 298.706 297.781C298.478 297.553 298.267 297.326 298.071 297.098C297.909 296.902 297.778 296.642 297.681 296.316C297.518 296.316 297.437 296.235 297.437 296.072C297.469 295.91 297.42 295.828 297.29 295.828C297.485 295.503 297.567 295.324 297.534 295.291C297.534 295.226 297.485 295.177 297.388 295.145C297.323 295.112 297.257 295.079 297.192 295.047C297.127 294.982 297.111 294.9 297.144 294.803C297.274 294.542 297.323 294.249 297.29 293.924C297.257 293.566 297.225 293.208 297.192 292.85C297.16 292.492 297.176 292.15 297.241 291.824C297.339 291.499 297.583 291.238 297.974 291.043C299.08 291.173 300.122 291.141 301.099 290.945C302.108 290.717 303.052 290.408 303.931 290.018C304.81 289.627 305.64 289.204 306.421 288.748C307.235 288.292 308.032 287.885 308.813 287.527C308.911 287.234 309.041 286.99 309.204 286.795C309.399 286.6 309.595 286.421 309.79 286.258C309.985 286.095 310.164 285.916 310.327 285.721C310.49 285.525 310.604 285.281 310.669 284.988C310.701 284.76 310.636 284.63 310.474 284.598C310.343 284.533 310.278 284.402 310.278 284.207L309.741 284.061C309.123 283.702 308.423 283.41 307.642 283.182C306.86 282.921 306.193 282.645 305.64 282.352C305.282 282.547 304.94 282.596 304.614 282.498C304.321 282.4 303.931 282.303 303.442 282.205C302.336 282.14 301.261 282.026 300.22 281.863C299.211 281.701 298.234 281.408 297.29 280.984C297.225 280.822 297.144 280.675 297.046 280.545C296.948 280.415 296.769 280.382 296.509 280.447C296.313 280.187 296.118 279.943 295.923 279.715C295.728 279.454 295.549 279.178 295.386 278.885C295.451 278.494 295.5 278.169 295.532 277.908C295.565 277.615 295.467 277.339 295.239 277.078C295.369 276.655 295.467 276.313 295.532 276.053C295.597 275.792 295.597 275.451 295.532 275.027ZM328.296 293.582C328.459 294.559 328.394 295.324 328.101 295.877C327.84 296.43 327.45 296.837 326.929 297.098C326.44 297.391 325.871 297.553 325.22 297.586C324.569 297.618 323.95 297.586 323.364 297.488C323.039 297.033 322.746 296.463 322.485 295.779C322.225 295.096 321.981 294.396 321.753 293.68C321.525 292.931 321.313 292.199 321.118 291.482C320.955 290.766 320.809 290.132 320.679 289.578C320.841 289.188 320.939 288.748 320.972 288.26C321.037 287.739 321.069 287.218 321.069 286.697C321.102 286.176 321.118 285.656 321.118 285.135C321.151 284.581 321.2 284.061 321.265 283.572C321.493 282.205 321.818 280.903 322.241 279.666C322.697 278.429 323.055 277.143 323.315 275.809C323.381 275.516 323.348 275.239 323.218 274.979C323.12 274.718 323.104 274.474 323.169 274.246C323.201 274.116 323.299 274.035 323.462 274.002C323.625 273.937 323.722 273.823 323.755 273.66C323.853 273.302 323.869 273.009 323.804 272.781C323.771 272.553 323.836 272.277 323.999 271.951C324.162 271.691 324.357 271.316 324.585 270.828C324.845 270.307 324.943 269.77 324.878 269.217C325.171 269.021 325.448 268.794 325.708 268.533C325.968 268.273 326.229 268.045 326.489 267.85C326.782 267.622 327.091 267.426 327.417 267.264C327.775 267.101 328.198 267.02 328.687 267.02C328.947 267.345 329.11 267.703 329.175 268.094C329.272 268.484 329.354 268.875 329.419 269.266C329.517 269.656 329.647 270.031 329.81 270.389C329.972 270.714 330.249 270.975 330.64 271.17C330.64 271.43 330.64 271.756 330.64 272.146C330.64 272.537 330.656 272.928 330.688 273.318C330.721 273.676 330.786 274.018 330.884 274.344C331.014 274.637 331.209 274.832 331.47 274.93C330.884 276.492 330.33 278.038 329.81 279.568C329.321 281.098 328.914 282.645 328.589 284.207C328.263 285.737 328.052 287.283 327.954 288.846C327.889 290.408 328.003 291.987 328.296 293.582ZM344.312 293.582C344.474 294.559 344.409 295.324 344.116 295.877C343.856 296.43 343.465 296.837 342.944 297.098C342.456 297.391 341.886 297.553 341.235 297.586C340.584 297.618 339.966 297.586 339.38 297.488C339.054 297.033 338.761 296.463 338.501 295.779C338.241 295.096 337.996 294.396 337.769 293.68C337.541 292.931 337.329 292.199 337.134 291.482C336.971 290.766 336.825 290.132 336.694 289.578C336.857 289.188 336.955 288.748 336.987 288.26C337.052 287.739 337.085 287.218 337.085 286.697C337.118 286.176 337.134 285.656 337.134 285.135C337.166 284.581 337.215 284.061 337.28 283.572C337.508 282.205 337.834 280.903 338.257 279.666C338.713 278.429 339.071 277.143 339.331 275.809C339.396 275.516 339.364 275.239 339.233 274.979C339.136 274.718 339.119 274.474 339.185 274.246C339.217 274.116 339.315 274.035 339.478 274.002C339.64 273.937 339.738 273.823 339.771 273.66C339.868 273.302 339.884 273.009 339.819 272.781C339.787 272.553 339.852 272.277 340.015 271.951C340.177 271.691 340.373 271.316 340.601 270.828C340.861 270.307 340.959 269.77 340.894 269.217C341.187 269.021 341.463 268.794 341.724 268.533C341.984 268.273 342.244 268.045 342.505 267.85C342.798 267.622 343.107 267.426 343.433 267.264C343.791 267.101 344.214 267.02 344.702 267.02C344.963 267.345 345.125 267.703 345.19 268.094C345.288 268.484 345.369 268.875 345.435 269.266C345.532 269.656 345.662 270.031 345.825 270.389C345.988 270.714 346.265 270.975 346.655 271.17C346.655 271.43 346.655 271.756 346.655 272.146C346.655 272.537 346.672 272.928 346.704 273.318C346.737 273.676 346.802 274.018 346.899 274.344C347.03 274.637 347.225 274.832 347.485 274.93C346.899 276.492 346.346 278.038 345.825 279.568C345.337 281.098 344.93 282.645 344.604 284.207C344.279 285.737 344.067 287.283 343.97 288.846C343.905 290.408 344.019 291.987 344.312 293.582ZM377.759 273.514C376.945 273.514 376.066 273.579 375.122 273.709C374.178 273.807 373.25 273.921 372.339 274.051C371.688 274.148 371.053 274.23 370.435 274.295C369.849 274.36 369.312 274.409 368.823 274.441C368.595 275.158 368.368 275.792 368.14 276.346C367.912 276.899 367.668 277.436 367.407 277.957C367.147 278.51 366.903 279.08 366.675 279.666C366.479 280.219 366.284 280.822 366.089 281.473C365.763 281.993 365.487 282.482 365.259 282.938C365.063 283.361 364.901 283.849 364.771 284.402C364.38 284.891 364.087 285.411 363.892 285.965C363.696 286.486 363.55 286.941 363.452 287.332L363.257 287.918C363.062 288.113 362.948 288.276 362.915 288.406C362.882 288.504 362.801 288.602 362.671 288.699C362.638 289.057 362.524 289.415 362.329 289.773C362.264 289.936 362.215 290.099 362.183 290.262C362.15 290.392 362.134 290.49 362.134 290.555C362.134 290.88 362.052 291.092 361.89 291.189C361.922 291.352 361.922 291.531 361.89 291.727C361.857 291.889 361.825 292.052 361.792 292.215C361.694 292.605 361.662 292.915 361.694 293.143C361.792 293.273 361.873 293.387 361.938 293.484C362.036 293.582 362.101 293.712 362.134 293.875C362.329 294.005 362.476 294.087 362.573 294.119C362.703 294.217 362.899 294.331 363.159 294.461L363.599 294.949C363.761 295.893 363.615 296.642 363.159 297.195C362.671 297.814 361.841 298.123 360.669 298.123H360.083C359.92 297.96 359.823 297.83 359.79 297.732C359.53 297.635 359.318 297.553 359.155 297.488C358.993 297.423 358.846 297.293 358.716 297.098C358.293 296.902 357.951 296.74 357.69 296.609L357.251 296.365C357.251 296.007 357.251 295.812 357.251 295.779C357.023 295.486 356.844 295.161 356.714 294.803C356.616 294.445 356.535 294.087 356.47 293.729C356.405 293.436 356.323 293.159 356.226 292.898C356.16 292.638 356.063 292.41 355.933 292.215C355.868 290.327 356.047 288.732 356.47 287.43C356.893 286.128 357.332 284.874 357.788 283.67C358.049 283.019 358.309 282.368 358.569 281.717C358.83 281.033 359.058 280.333 359.253 279.617L359.692 279.129C359.92 278.608 360.099 278.185 360.229 277.859C360.392 277.501 360.555 277.143 360.718 276.785C360.815 276.557 360.897 276.346 360.962 276.15C361.06 275.923 361.141 275.727 361.206 275.564C361.011 275.564 360.832 275.581 360.669 275.613C360.506 275.613 360.343 275.63 360.181 275.662C359.985 275.695 359.806 275.727 359.644 275.76C359.481 275.76 359.318 275.76 359.155 275.76C358.927 275.76 358.765 275.743 358.667 275.711C358.309 275.874 357.918 275.955 357.495 275.955H357.007C356.909 275.955 356.812 275.955 356.714 275.955C356.649 275.923 356.584 275.906 356.519 275.906C356.193 275.906 355.933 275.955 355.737 276.053C355.347 276.053 354.972 276.053 354.614 276.053H354.126C354.061 276.053 353.979 276.069 353.882 276.102C353.784 276.102 353.703 276.102 353.638 276.102C353.41 276.102 353.166 276.085 352.905 276.053C352.645 275.988 352.368 275.874 352.075 275.711C351.685 275.19 351.424 274.913 351.294 274.881L350.854 274.295C350.822 274.1 350.773 273.921 350.708 273.758C350.643 273.562 350.578 273.351 350.513 273.123C350.382 272.798 350.252 272.456 350.122 272.098C350.024 271.707 349.976 271.251 349.976 270.73C350.008 270.47 350.073 270.275 350.171 270.145C350.269 270.014 350.35 269.9 350.415 269.803L350.562 269.07L351.196 269.119H352.563C353.605 269.119 354.663 269.087 355.737 269.021C356.812 268.924 357.918 268.826 359.058 268.729C359.709 268.663 360.36 268.598 361.011 268.533C361.694 268.468 362.394 268.403 363.11 268.338C363.241 268.045 363.371 267.768 363.501 267.508L363.989 267.264C364.575 267.231 364.982 267.312 365.21 267.508C365.47 267.671 365.682 267.833 365.845 267.996C366.561 267.931 367.277 267.866 367.993 267.801C368.742 267.703 369.491 267.589 370.239 267.459C371.346 267.296 372.453 267.15 373.56 267.02C374.699 266.889 375.789 266.824 376.831 266.824C377.287 266.824 377.726 266.84 378.149 266.873C378.573 266.906 378.963 266.954 379.321 267.02L379.81 267.361C379.907 267.557 380.037 267.736 380.2 267.898C380.396 268.061 380.591 268.224 380.786 268.387C381.177 268.745 381.567 269.168 381.958 269.656C382.349 270.145 382.495 270.861 382.397 271.805C382.137 272.195 381.942 272.423 381.812 272.488L381.372 273.074L380.884 273.025C380.688 273.025 380.509 273.058 380.347 273.123C380.184 273.156 380.021 273.204 379.858 273.27C379.728 273.335 379.598 273.4 379.468 273.465C379.338 273.497 379.191 273.53 379.028 273.562C378.735 273.562 378.491 273.562 378.296 273.562C378.133 273.53 377.954 273.514 377.759 273.514ZM401.196 261.648C401.554 262.365 402.01 262.951 402.563 263.406C403.149 263.829 403.719 264.269 404.272 264.725C404.956 265.994 405.379 267.41 405.542 268.973C405.705 270.535 405.884 272.244 406.079 274.1C406.079 275.597 405.981 277.013 405.786 278.348C405.591 279.65 405.33 280.936 405.005 282.205C404.712 283.442 404.37 284.679 403.979 285.916C403.589 287.153 403.215 288.455 402.856 289.822C402.401 290.311 402.043 291.01 401.782 291.922C401.554 292.801 401.538 293.663 401.733 294.51C401.31 295.031 400.887 295.535 400.464 296.023C400.041 296.512 399.569 296.967 399.048 297.391C398.853 297.195 398.592 297.081 398.267 297.049C397.974 297.049 397.664 297.049 397.339 297.049C397.013 297.081 396.704 297.114 396.411 297.146C396.151 297.212 395.955 297.228 395.825 297.195C395.662 296.935 395.435 296.658 395.142 296.365C394.881 296.072 394.637 295.763 394.409 295.438C394.214 295.112 394.051 294.803 393.921 294.51C393.823 294.184 393.856 293.875 394.019 293.582C394.019 293.224 393.823 293.045 393.433 293.045C393.53 291.548 393.774 290.083 394.165 288.65C394.556 287.186 394.995 285.77 395.483 284.402C395.972 283.003 396.444 281.619 396.899 280.252C397.388 278.885 397.746 277.534 397.974 276.199C398.234 274.865 398.299 273.53 398.169 272.195C398.071 270.861 397.697 269.51 397.046 268.143C397.046 267.687 397.03 267.312 396.997 267.02C396.997 266.694 396.981 266.417 396.948 266.189C396.948 265.929 396.932 265.685 396.899 265.457C396.867 265.229 396.802 264.985 396.704 264.725C396.867 264.269 396.981 263.846 397.046 263.455C397.144 263.064 397.144 262.706 397.046 262.381C397.078 262.153 397.144 261.974 397.241 261.844C397.339 261.681 397.453 261.535 397.583 261.404C397.713 261.242 397.827 261.095 397.925 260.965C398.055 260.802 398.136 260.607 398.169 260.379H399.243C399.601 260.672 399.91 260.949 400.171 261.209C400.431 261.437 400.773 261.583 401.196 261.648ZM433.423 267.996C433.358 268.289 433.358 268.582 433.423 268.875C433.488 269.135 433.553 269.396 433.618 269.656C433.683 269.884 433.748 270.145 433.813 270.438C433.879 270.698 433.895 270.975 433.862 271.268C433.993 271.593 434.155 271.886 434.351 272.146C434.578 272.407 434.774 272.667 434.937 272.928C435.132 273.156 435.278 273.416 435.376 273.709C435.506 274.002 435.555 274.36 435.522 274.783C435.229 275.141 435.002 275.483 434.839 275.809C434.676 276.102 434.481 276.378 434.253 276.639C434.025 276.867 433.765 277.078 433.472 277.273C433.179 277.469 432.918 277.68 432.69 277.908C432.43 278.657 432.17 279.275 431.909 279.764C431.681 280.219 431.437 280.822 431.177 281.57C431.112 282.417 431.014 283.198 430.884 283.914C430.754 284.598 430.607 285.281 430.444 285.965C430.282 286.616 430.119 287.283 429.956 287.967C429.793 288.65 429.647 289.383 429.517 290.164C429.484 291.531 429.256 292.833 428.833 294.07C428.442 295.275 427.873 296.43 427.124 297.537C426.538 297.472 426.001 297.472 425.513 297.537C425.057 297.635 424.536 297.732 423.95 297.83C423.69 297.57 423.462 297.309 423.267 297.049C423.071 296.821 422.843 296.609 422.583 296.414C422.616 294.786 422.697 293.322 422.827 292.02C422.99 290.685 423.185 289.383 423.413 288.113C423.674 286.844 423.966 285.542 424.292 284.207C424.618 282.84 424.959 281.31 425.317 279.617C424.862 279.585 424.325 279.617 423.706 279.715C423.12 279.78 422.485 279.878 421.802 280.008C421.151 280.105 420.483 280.236 419.8 280.398C419.149 280.529 418.53 280.643 417.944 280.74C417.586 280.708 417.212 280.691 416.821 280.691C416.463 280.691 416.121 280.675 415.796 280.643C415.47 280.61 415.161 280.545 414.868 280.447C414.608 280.317 414.38 280.122 414.185 279.861C413.664 279.992 413.224 279.975 412.866 279.812C412.508 279.617 412.199 279.373 411.938 279.08C411.678 278.755 411.45 278.396 411.255 278.006C411.092 277.615 410.913 277.257 410.718 276.932C410.555 275.857 410.506 274.897 410.571 274.051C410.669 273.204 410.832 272.423 411.06 271.707C411.32 270.991 411.629 270.307 411.987 269.656C412.378 268.973 412.769 268.273 413.159 267.557C414.006 266.71 414.933 265.848 415.942 264.969C416.984 264.09 418.107 263.309 419.312 262.625C420.516 261.941 421.802 261.404 423.169 261.014C424.536 260.623 426.001 260.493 427.563 260.623C428.866 261.567 429.956 262.69 430.835 263.992C431.714 265.294 432.576 266.629 433.423 267.996ZM426.978 270.535C427.01 269.917 426.847 269.493 426.489 269.266C426.131 269.005 425.692 268.826 425.171 268.729C424.357 269.054 423.56 269.38 422.778 269.705C422.03 269.998 421.379 270.421 420.825 270.975C420.728 271.072 420.597 271.137 420.435 271.17C420.304 271.202 420.174 271.251 420.044 271.316C419.914 271.349 419.816 271.43 419.751 271.561C419.686 271.691 419.686 271.87 419.751 272.098C421.118 272.163 422.371 272.016 423.511 271.658C424.65 271.3 425.806 270.926 426.978 270.535ZM461.938 272.635C462.134 273.188 462.329 273.676 462.524 274.1C462.72 274.523 463.094 274.897 463.647 275.223C463.517 275.971 463.485 276.59 463.55 277.078C463.615 277.566 463.534 278.169 463.306 278.885C462.85 279.373 462.297 279.764 461.646 280.057C461.027 280.35 460.376 280.61 459.692 280.838C459.041 281.033 458.374 281.245 457.69 281.473C457.039 281.701 456.437 282.01 455.884 282.4C455.461 283.702 455.005 284.988 454.517 286.258C454.061 287.527 453.654 288.927 453.296 290.457C453.361 290.62 453.475 290.734 453.638 290.799C453.8 290.864 453.931 290.962 454.028 291.092C453.866 291.548 453.849 291.922 453.979 292.215C454.11 292.475 454.289 292.719 454.517 292.947C454.744 293.175 454.972 293.403 455.2 293.631C455.461 293.859 455.64 294.119 455.737 294.412C455.607 294.705 455.526 294.998 455.493 295.291C455.461 295.584 455.428 295.877 455.396 296.17C455.396 296.463 455.347 296.756 455.249 297.049C455.184 297.342 455.037 297.635 454.81 297.928C454.159 298.188 453.491 298.318 452.808 298.318C452.157 298.318 451.554 298.4 451.001 298.562C450.317 298.4 449.731 298.058 449.243 297.537C448.787 297.049 448.413 296.479 448.12 295.828C447.827 295.177 447.599 294.51 447.437 293.826C447.274 293.143 447.144 292.54 447.046 292.02C447.241 291.661 447.192 291.499 446.899 291.531C446.769 291.076 446.785 290.636 446.948 290.213C447.111 289.79 447.144 289.464 447.046 289.236C447.111 288.423 447.241 287.576 447.437 286.697C447.632 285.786 447.86 284.76 448.12 283.621C447.697 283.523 447.225 283.442 446.704 283.377C446.216 283.279 445.728 283.214 445.239 283.182C444.784 283.117 444.36 283.068 443.97 283.035C443.579 283.003 443.286 282.986 443.091 282.986C442.603 282.856 442.179 282.661 441.821 282.4C441.463 282.107 441.138 281.798 440.845 281.473C440.552 281.115 440.259 280.757 439.966 280.398C439.705 280.04 439.429 279.699 439.136 279.373C439.038 278.234 438.875 277.078 438.647 275.906C438.42 274.734 438.208 273.595 438.013 272.488C437.817 271.382 437.671 270.34 437.573 269.363C437.476 268.387 437.524 267.508 437.72 266.727C438.045 266.238 438.371 265.766 438.696 265.311C439.022 264.855 439.412 264.464 439.868 264.139C440.226 264.236 440.503 264.415 440.698 264.676C440.926 264.904 441.121 265.164 441.284 265.457C441.479 265.717 441.675 265.978 441.87 266.238C442.098 266.466 442.391 266.629 442.749 266.727C442.879 267.345 443.075 267.931 443.335 268.484C443.628 269.005 443.888 269.542 444.116 270.096C444.377 270.649 444.588 271.235 444.751 271.854C444.946 272.439 445.044 273.107 445.044 273.855C445.369 274.344 445.711 274.653 446.069 274.783C446.46 274.881 446.867 274.913 447.29 274.881C447.713 274.848 448.136 274.816 448.56 274.783C449.015 274.751 449.471 274.799 449.927 274.93C450.024 274.767 450.187 274.686 450.415 274.686C450.643 274.653 450.838 274.588 451.001 274.49C451.196 274.425 451.294 274.262 451.294 274.002C451.326 273.742 451.473 273.595 451.733 273.562C451.668 273.009 451.668 272.472 451.733 271.951C451.831 271.398 451.912 270.877 451.978 270.389C452.075 269.9 452.124 269.428 452.124 268.973C452.157 268.517 452.091 268.061 451.929 267.605C452.254 266.987 452.45 266.255 452.515 265.408C452.612 264.529 452.71 263.683 452.808 262.869C452.938 262.055 453.149 261.323 453.442 260.672C453.768 259.988 454.321 259.516 455.103 259.256C457.056 260.916 458.423 263.146 459.204 265.945C458.879 267.312 458.683 268.582 458.618 269.754C458.586 270.926 458.586 272.098 458.618 273.27C459.172 273.107 459.741 272.977 460.327 272.879C460.946 272.781 461.483 272.7 461.938 272.635ZM472.876 261.648C473.234 262.365 473.69 262.951 474.243 263.406C474.829 263.829 475.399 264.269 475.952 264.725C476.636 265.994 477.059 267.41 477.222 268.973C477.384 270.535 477.563 272.244 477.759 274.1C477.759 275.597 477.661 277.013 477.466 278.348C477.271 279.65 477.01 280.936 476.685 282.205C476.392 283.442 476.05 284.679 475.659 285.916C475.269 287.153 474.894 288.455 474.536 289.822C474.08 290.311 473.722 291.01 473.462 291.922C473.234 292.801 473.218 293.663 473.413 294.51C472.99 295.031 472.567 295.535 472.144 296.023C471.72 296.512 471.248 296.967 470.728 297.391C470.532 297.195 470.272 297.081 469.946 297.049C469.653 297.049 469.344 297.049 469.019 297.049C468.693 297.081 468.384 297.114 468.091 297.146C467.83 297.212 467.635 297.228 467.505 297.195C467.342 296.935 467.114 296.658 466.821 296.365C466.561 296.072 466.317 295.763 466.089 295.438C465.894 295.112 465.731 294.803 465.601 294.51C465.503 294.184 465.535 293.875 465.698 293.582C465.698 293.224 465.503 293.045 465.112 293.045C465.21 291.548 465.454 290.083 465.845 288.65C466.235 287.186 466.675 285.77 467.163 284.402C467.651 283.003 468.123 281.619 468.579 280.252C469.067 278.885 469.425 277.534 469.653 276.199C469.914 274.865 469.979 273.53 469.849 272.195C469.751 270.861 469.377 269.51 468.726 268.143C468.726 267.687 468.709 267.312 468.677 267.02C468.677 266.694 468.66 266.417 468.628 266.189C468.628 265.929 468.612 265.685 468.579 265.457C468.547 265.229 468.481 264.985 468.384 264.725C468.547 264.269 468.66 263.846 468.726 263.455C468.823 263.064 468.823 262.706 468.726 262.381C468.758 262.153 468.823 261.974 468.921 261.844C469.019 261.681 469.132 261.535 469.263 261.404C469.393 261.242 469.507 261.095 469.604 260.965C469.735 260.802 469.816 260.607 469.849 260.379H470.923C471.281 260.672 471.59 260.949 471.851 261.209C472.111 261.437 472.453 261.583 472.876 261.648Z" fill="#6B1A2A"/>
<path d="M450.712 16.5049C431.368 5.55948 420.593 21.0655 417.624 30.1867C417.624 19.111 410.879 -2.38896 383.9 0.2171C356.92 2.82316 384.112 56.4645 401.08 82.9594C425.684 65.3685 470.056 27.4504 450.712 16.5049Z" fill="#FF2D55"/>
</svg>
